<svg id="Capa_1" data-name="Capa 1" xmlns="http://www.w3.org/2000/svg" viewBox="0 0 1080 1080"><defs><style>.cls-1{fill:#fff;}</style></defs><path class="cls-1" d="M128.48,677.86q-28.15,0-47.87-11.44T47.88,632.1l35.55-26.4q7.74,14.09,17.6,20.59a37.5,37.5,0,0,0,21.12,6.51q17.23,0,26-10.56t8.8-37.66V412.11h52.1v176.7q0,24.63-8.45,44.87a70.77,70.77,0,0,1-26.22,32.21Q156.63,677.86,128.48,677.86Z"/><path class="cls-1" d="M570.32,677.58a97.82,97.82,0,0,1-42.39-9.86,110.24,110.24,0,0,1-36.55-28.16l24.85-35.9A92.8,92.8,0,0,0,542.4,624.6q14.76,7.92,28.8,7.92,16.95,0,25.73-8.09t8.76-21.82q0-9.86-4.23-15.67a40.92,40.92,0,0,0-11.56-10.38A166.56,166.56,0,0,0,573,567.41L544.3,552.27A92.8,92.8,0,0,1,523.39,538a71,71,0,0,1-16.66-22.71q-6.59-13.72-6.58-32.73,0-21.46,9.65-38.37a72.69,72.69,0,0,1,26.6-26.92q17-10,38.6-10a83,83,0,0,1,37.13,8.8,92.35,92.35,0,0,1,31,25l-21.93,32.38a84.4,84.4,0,0,0-21.34-15.84A54.24,54.24,0,0,0,575,452q-14,0-22.37,7.21t-8.33,20.24q0,9.16,4.68,15.14a41.82,41.82,0,0,0,12.27,10.38q7.61,4.41,16.67,9l28.36,13.72a86.92,86.92,0,0,1,23,15.84,66.13,66.13,0,0,1,15.21,22.88q5.4,13.38,5.4,32.38a82.26,82.26,0,0,1-9.5,39.07,74.33,74.33,0,0,1-27.19,28.87Q595.45,677.58,570.32,677.58Z"/><rect class="cls-1" x="40.59" y="63.84" width="998.82" height="52.09"/><rect class="cls-1" x="40.59" y="63.84" width="52.09" height="429.65"/><rect class="cls-1" x="987.32" y="63.84" width="52.09" height="429.65"/><rect class="cls-1" x="40.59" y="964.06" width="998.01" height="52.09"/><rect class="cls-1" x="987.32" y="620.74" width="52.09" height="395.42"/><rect class="cls-1" x="40.59" y="702.9" width="52.09" height="313.25"/><polygon class="cls-1" points="352.67 411.9 238.3 672.93 467.04 672.93 352.67 411.9"/><path class="cls-1" d="M809.34,409.82A135.17,135.17,0,1,0,944.5,545,135.17,135.17,0,0,0,809.34,409.82Zm0,217.76a82.6,82.6,0,1,1,82.6-82.6A82.6,82.6,0,0,1,809.34,627.58Z"/></svg>