<svg id="Capa_1" data-name="Capa 1" xmlns="http://www.w3.org/2000/svg" viewBox="0 0 1080 1080"><defs><style>.cls-1{fill:#fff;}</style></defs><rect class="cls-1" x="34.71" y="58.24" width="1010.58" height="93.82"/><rect class="cls-1" x="34.71" y="58.24" width="93.82" height="434.71"/><rect class="cls-1" x="34.71" y="927.95" width="1009.76" height="93.82"/><rect class="cls-1" x="951.47" y="621.69" width="93.82" height="400.07"/><path class="cls-1" d="M264,776.94q-50.19,0-85.29-20.38t-58.32-61.15l63.34-47q13.78,25.1,31.35,36.69a66.94,66.94,0,0,0,37.63,11.6q30.72,0,46.4-18.81t15.68-67.1V303.48H407.6v314.8q0,43.9-15.05,80t-46.72,57.38Q314.17,776.92,264,776.94Z"/><path class="cls-1" d="M719.46,781.6q-38.64,0-75.71-17.6t-65.27-50.29l44.38-64.12A166,166,0,0,0,669.6,687Q696,701.14,721,701.14q30.29,0,46-14.46t15.66-39q0-17.58-7.57-28t-20.63-18.55a299.22,299.22,0,0,0-30.28-16.34l-51.17-27a165.39,165.39,0,0,1-37.33-25.46q-18-16-29.77-40.55t-11.74-58.46q0-38.34,17.23-68.52a129.84,129.84,0,0,1,47.51-48.09q30.29-17.91,68.93-17.91a148.16,148.16,0,0,1,66.31,15.71,164.9,164.9,0,0,1,55.35,44.63L810.32,417Q792,398.78,772.2,388.71t-44.38-10.06q-25.07,0-40,12.89T673,427.68q0,16.36,8.36,27a74.76,74.76,0,0,0,21.92,18.54q13.58,7.88,29.77,16l50.65,24.52a154.77,154.77,0,0,1,41,28.28A117.92,117.92,0,0,1,851.83,583q9.64,23.91,9.66,57.84a146.94,146.94,0,0,1-17,69.78A132.63,132.63,0,0,1,796,762.11Q764.36,781.6,719.46,781.6Z"/></svg>