<svg width="38" height="34" viewBox="0 0 38 34" fill="none" xmlns="http://www.w3.org/2000/svg">
<path d="M29.8333 12H8.16667C7.24619 12 6.5 12.7462 6.5 13.6667V30.3333C6.5 31.2538 7.24619 32 8.16667 32H29.8333C30.7538 32 31.5 31.2538 31.5 30.3333V13.6667C31.5 12.7462 30.7538 12 29.8333 12Z" stroke="white" stroke-width="4"/>
<path d="M13.1667 20.3333C14.0871 20.3333 14.8333 19.5871 14.8333 18.6667C14.8333 17.7462 14.0871 17 13.1667 17C12.2462 17 11.5 17.7462 11.5 18.6667C11.5 19.5871 12.2462 20.3333 13.1667 20.3333Z" fill="white"/>
<path d="M24.8334 20.3333C25.7539 20.3333 26.5001 19.5871 26.5001 18.6667C26.5001 17.7462 25.7539 17 24.8334 17C23.9129 17 23.1667 17.7462 23.1667 18.6667C23.1667 19.5871 23.9129 20.3333 24.8334 20.3333Z" fill="white"/>
<path d="M15.6667 23.6666C15.2246 23.6666 14.8007 23.8422 14.4882 24.1548C14.1756 24.4673 14 24.8913 14 25.3333C14 25.7753 14.1756 26.1992 14.4882 26.5118C14.8007 26.8244 15.2246 27 15.6667 27V23.6666ZM22.3333 27C22.7754 27 23.1993 26.8244 23.5118 26.5118C23.8244 26.1992 24 25.7753 24 25.3333C24 24.8913 23.8244 24.4673 23.5118 24.1548C23.1993 23.8422 22.7754 23.6666 22.3333 23.6666V27ZM15.6667 27H22.3333V23.6666H15.6667V27Z" fill="white"/>
<path d="M19 5.33337V12M2.33337 18.6667V25.3334M35.6667 18.6667V25.3334" stroke="white" stroke-width="4" stroke-linecap="round" stroke-linejoin="round"/>
<path d="M19 5.33333C19.9205 5.33333 20.6667 4.58714 20.6667 3.66667C20.6667 2.74619 19.9205 2 19 2C18.0796 2 17.3334 2.74619 17.3334 3.66667C17.3334 4.58714 18.0796 5.33333 19 5.33333Z" stroke="white" stroke-width="4"/>
</svg>
