<svg width="38" height="34" viewBox="0 0 38 34" fill="none" xmlns="http://www.w3.org/2000/svg">
<path d="M29.8333 12H8.16667C7.24619 12 6.5 12.7462 6.5 13.6667V30.3333C6.5 31.2538 7.24619 32 8.16667 32H29.8333C30.7538 32 31.5 31.2538 31.5 30.3333V13.6667C31.5 12.7462 30.7538 12 29.8333 12Z" stroke="black" stroke-width="4"/>
<path d="M13.1667 20.3333C14.0871 20.3333 14.8333 19.5871 14.8333 18.6667C14.8333 17.7462 14.0871 17 13.1667 17C12.2462 17 11.5 17.7462 11.5 18.6667C11.5 19.5871 12.2462 20.3333 13.1667 20.3333Z" fill="black"/>
<path d="M24.8334 20.3333C25.7538 20.3333 26.5 19.5871 26.5 18.6667C26.5 17.7462 25.7538 17 24.8334 17C23.9129 17 23.1667 17.7462 23.1667 18.6667C23.1667 19.5871 23.9129 20.3333 24.8334 20.3333Z" fill="black"/>
<path d="M15.6667 23.6667C15.2246 23.6667 14.8007 23.8423 14.4882 24.1549C14.1756 24.4675 14 24.8914 14 25.3334C14 25.7754 14.1756 26.1994 14.4882 26.5119C14.8007 26.8245 15.2246 27.0001 15.6667 27.0001V23.6667ZM22.3333 27.0001C22.7754 27.0001 23.1993 26.8245 23.5118 26.5119C23.8244 26.1994 24 25.7754 24 25.3334C24 24.8914 23.8244 24.4675 23.5118 24.1549C23.1993 23.8423 22.7754 23.6667 22.3333 23.6667V27.0001ZM15.6667 27.0001H22.3333V23.6667H15.6667V27.0001Z" fill="black"/>
<path d="M19 5.33325V11.9999M2.33334 18.6666V25.3333M35.6667 18.6666V25.3333" stroke="black" stroke-width="4" stroke-linecap="round" stroke-linejoin="round"/>
<path d="M19 5.33333C19.9205 5.33333 20.6667 4.58714 20.6667 3.66667C20.6667 2.74619 19.9205 2 19 2C18.0795 2 17.3333 2.74619 17.3333 3.66667C17.3333 4.58714 18.0795 5.33333 19 5.33333Z" stroke="black" stroke-width="4"/>
</svg>
