<svg width="34" height="28" viewBox="0 0 34 28" fill="none" xmlns="http://www.w3.org/2000/svg">
<path d="M15.3333 22.3334H27C27.4722 22.3334 27.8683 22.1734 28.1883 21.8534C28.5083 21.5334 28.6678 21.1379 28.6666 20.6668V14.0001C28.6666 13.5279 28.5066 13.1318 28.1866 12.8118C27.8666 12.4918 27.4711 12.3323 27 12.3334H15.3333C14.8611 12.3334 14.465 12.4934 14.145 12.8134C13.825 13.1334 13.6655 13.529 13.6666 14.0001V20.6668C13.6666 21.139 13.8266 21.5351 14.1466 21.8551C14.4666 22.1751 14.8622 22.3345 15.3333 22.3334ZM3.66665 27.3334C2.74998 27.3334 1.96498 27.0068 1.31165 26.3534C0.658316 25.7001 0.332205 24.9156 0.333316 24.0001V4.00008C0.333316 3.08342 0.659983 2.29842 1.31332 1.64508C1.96665 0.991751 2.75109 0.66564 3.66665 0.666751H30.3333C31.25 0.666751 32.035 0.993417 32.6883 1.64675C33.3416 2.30008 33.6678 3.08453 33.6666 4.00008V24.0001C33.6666 24.9168 33.34 25.7018 32.6866 26.3551C32.0333 27.0084 31.2489 27.3345 30.3333 27.3334H3.66665ZM3.66665 24.0001H30.3333V4.00008H3.66665V24.0001Z" fill="black"/>
</svg>
