<svg width="34" height="28" viewBox="0 0 34 28" fill="none" xmlns="http://www.w3.org/2000/svg">
<path d="M15.3333 22.3333H26.9999C27.4721 22.3333 27.8683 22.1733 28.1883 21.8533C28.5083 21.5333 28.6677 21.1377 28.6666 20.6666V14C28.6666 13.5277 28.5066 13.1316 28.1866 12.8116C27.8666 12.4916 27.471 12.3322 26.9999 12.3333H15.3333C14.861 12.3333 14.4649 12.4933 14.1449 12.8133C13.8249 13.1333 13.6655 13.5289 13.6666 14V20.6666C13.6666 21.1389 13.8266 21.535 14.1466 21.855C14.4666 22.175 14.8621 22.3344 15.3333 22.3333ZM3.66659 27.3333C2.74992 27.3333 1.96492 27.0066 1.31159 26.3533C0.658255 25.7 0.332144 24.9155 0.333255 24V3.99996C0.333255 3.0833 0.659921 2.2983 1.31325 1.64496C1.96659 0.991629 2.75103 0.665518 3.66659 0.666629H30.3333C31.2499 0.666629 32.0349 0.993295 32.6883 1.64663C33.3416 2.29996 33.6677 3.08441 33.6666 3.99996V24C33.6666 24.9166 33.3399 25.7016 32.6866 26.355C32.0333 27.0083 31.2488 27.3344 30.3333 27.3333H3.66659ZM3.66659 24H30.3333V3.99996H3.66659V24Z" fill="white"/>
</svg>
