<svg width="64" height="62" viewBox="0 0 64 62" fill="none" xmlns="http://www.w3.org/2000/svg">
<path d="M62.7386 0.752452C62.3844 0.405819 61.9368 0.165823 61.4485 0.0606828C60.9603 -0.0444576 60.4516 -0.0103719 59.9824 0.158932L2.23238 20.8031C1.73433 20.9888 1.30554 21.3191 1.00296 21.75C0.700383 22.181 0.53833 22.6922 0.53833 23.2159C0.53833 23.7395 0.700383 24.2508 1.00296 24.6817C1.30554 25.1127 1.73433 25.443 2.23238 25.6287L27.4324 35.5379L37.5124 60.3109C37.7018 60.779 38.0264 61.1823 38.4462 61.4712C38.866 61.7601 39.3627 61.9219 39.8749 61.9366C40.4054 61.9259 40.9201 61.7574 41.3512 61.4534C41.7823 61.1493 42.1096 60.724 42.2899 60.2334L63.2899 3.462C63.4687 3.00544 63.5119 2.50832 63.4143 2.02858C63.3167 1.54884 63.0823 1.10627 62.7386 0.752452ZM39.8749 52.1306L32.5511 34.067L45.1249 21.7063L41.4236 18.0677L28.7449 30.5317L10.4749 23.2288L56.4911 6.89409L39.8749 52.1306Z" fill="white"/>
</svg>
