<svg width="46" height="46" viewBox="0 0 46 46" fill="none" xmlns="http://www.w3.org/2000/svg">
<path d="M44.9811 1.05377C44.6583 0.730321 44.2749 0.473709 43.8528 0.298622C43.4308 0.123536 42.9783 0.0334124 42.5213 0.0334124C42.0644 0.0334124 41.6119 0.123536 41.1898 0.298622C40.7677 0.473709 40.3843 0.730321 40.0615 1.05377L23 18.0804L5.93846 1.01888C5.61544 0.695854 5.23195 0.439617 4.8099 0.264797C4.38785 0.0899775 3.9355 3.40361e-09 3.47867 0C3.02185 -3.40362e-09 2.56949 0.0899776 2.14744 0.264797C1.72539 0.439617 1.3419 0.695854 1.01888 1.01888C0.695854 1.3419 0.439617 1.72539 0.264797 2.14744C0.0899776 2.56949 -3.40361e-09 3.02185 0 3.47867C3.40362e-09 3.9355 0.0899775 4.38785 0.264797 4.8099C0.439617 5.23195 0.695854 5.61544 1.01888 5.93846L18.0804 23L1.01888 40.0615C0.695854 40.3846 0.439617 40.768 0.264797 41.1901C0.0899776 41.6122 0 42.0645 0 42.5213C0 42.9782 0.0899776 43.4305 0.264797 43.8526C0.439617 44.2746 0.695854 44.6581 1.01888 44.9811C1.3419 45.3041 1.72539 45.5604 2.14744 45.7352C2.56949 45.91 3.02185 46 3.47867 46C3.9355 46 4.38785 45.91 4.8099 45.7352C5.23195 45.5604 5.61544 45.3041 5.93846 44.9811L23 27.9196L40.0615 44.9811C40.3846 45.3041 40.768 45.5604 41.1901 45.7352C41.6122 45.91 42.0645 46 42.5213 46C42.9782 46 43.4305 45.91 43.8526 45.7352C44.2746 45.5604 44.6581 45.3041 44.9811 44.9811C45.3041 44.6581 45.5604 44.2746 45.7352 43.8526C45.91 43.4305 46 42.9782 46 42.5213C46 42.0645 45.91 41.6122 45.7352 41.1901C45.5604 40.768 45.3041 40.3846 44.9811 40.0615L27.9196 23L44.9811 5.93846C46.307 4.61262 46.307 2.37962 44.9811 1.05377Z" fill="white"/>
</svg>
