<svg width="40" height="40" viewBox="0 0 40 40" fill="none" xmlns="http://www.w3.org/2000/svg">
<g clip-path="url(#clip0_413_104)">
<path d="M10 19.3445V30H20.6556L18.4333 27.7778H12.2222V21.5667L10 19.3445Z" fill="black"/>
<path d="M38.7444 35.8779L35.5556 32.6445V35.5556H4.44444V30.9445H6.66666V29.1668H4.44444V21.7779H6.66666V20.0001H4.44444V12.889H6.66666V11.1112H4.44444V4.90009L22.1556 22.5112V19.3779L4.12222 1.43342C3.96681 1.27672 3.76825 1.16985 3.55186 1.12644C3.33548 1.08303 3.11106 1.10505 2.90724 1.18967C2.70341 1.2743 2.5294 1.41772 2.4074 1.60163C2.2854 1.78554 2.22093 2.00162 2.22222 2.22231V36.6668C2.22222 36.9614 2.33928 37.2441 2.54765 37.4524C2.75603 37.6608 3.03864 37.7779 3.33333 37.7779H37.9556C38.1762 37.7792 38.3923 37.7147 38.5762 37.5927C38.7601 37.4707 38.9036 37.2967 38.9882 37.0928C39.0728 36.889 39.0948 36.6646 39.0514 36.4482C39.008 36.2318 38.9011 36.0333 38.7444 35.8779Z" fill="black"/>
<path d="M26.6667 33.3332H31.1111C31.7005 33.3332 32.2657 33.0991 32.6825 32.6823C33.0992 32.2656 33.3333 31.7004 33.3333 31.111V9.66655L30.7778 4.96655C30.5801 4.62413 30.2947 4.34064 29.951 4.14532C29.6072 3.95 29.2176 3.84994 28.8222 3.85544C28.418 3.85865 28.0222 3.97209 27.6776 4.18354C27.333 4.395 27.0526 4.69645 26.8667 5.05544L24.4445 9.68877V31.111C24.4445 31.7004 24.6786 32.2656 25.0953 32.6823C25.5121 33.0991 26.0773 33.3332 26.6667 33.3332ZM26.6667 10.2221L28.8222 6.03322L31.1111 10.2332V26.6666H26.6667V10.2221ZM26.6667 28.4777H31.1111V31.1888H26.6667V28.4777Z" fill="black"/>
</g>
<defs>
<clipPath id="clip0_413_104">
<rect width="40" height="40" fill="white"/>
</clipPath>
</defs>
</svg>
