<svg width="37" height="55" viewBox="0 0 37 55" fill="none" xmlns="http://www.w3.org/2000/svg">
<g clip-path="url(#clip0_72_80)">
<path d="M9.25 55C14.356 55 18.5 50.8933 18.5 45.8333V36.6667H9.25C4.144 36.6667 0 40.7733 0 45.8333C0 50.8933 4.144 55 9.25 55Z" fill="#0ACF83"/>
<path d="M0 27.5C0 22.44 4.144 18.3333 9.25 18.3333H18.5V36.6666H9.25C4.144 36.6666 0 32.56 0 27.5Z" fill="#A259FF"/>
<path d="M0 9.16665C0 4.10665 4.144 -1.52588e-05 9.25 -1.52588e-05H18.5V18.3333H9.25C4.144 18.3333 0 14.2267 0 9.16665Z" fill="#F24E1E"/>
<path d="M18.5 -1.52588e-05H27.75C32.856 -1.52588e-05 37 4.10665 37 9.16665C37 14.2267 32.856 18.3333 27.75 18.3333H18.5V-1.52588e-05Z" fill="#FF7262"/>
<path d="M37 27.5C37 32.56 32.856 36.6666 27.75 36.6666C22.644 36.6666 18.5 32.56 18.5 27.5C18.5 22.44 22.644 18.3333 27.75 18.3333C32.856 18.3333 37 22.44 37 27.5Z" fill="#1ABCFE"/>
</g>
<defs>
<clipPath id="clip0_72_80">
<rect width="37" height="55" fill="white"/>
</clipPath>
</defs>
</svg>
