<svg width="21" height="20" viewBox="0 0 21 20" fill="none" xmlns="http://www.w3.org/2000/svg">
<path d="M10.7827 0.242188C9.4695 0.242187 8.16914 0.500845 6.95588 1.00339C5.74262 1.50594 4.64023 2.24253 3.71165 3.17112C1.83628 5.04648 0.782715 7.59002 0.782715 10.2422C0.782715 14.6622 3.65271 18.4122 7.62271 19.7422C8.12271 19.8222 8.28271 19.5122 8.28271 19.2422V17.5522C5.51271 18.1522 4.92271 16.2122 4.92271 16.2122C4.46271 15.0522 3.81272 14.7422 3.81272 14.7422C2.90272 14.1222 3.88271 14.1422 3.88271 14.1422C4.88271 14.2122 5.41271 15.1722 5.41271 15.1722C6.28271 16.6922 7.75271 16.2422 8.32271 16.0022C8.41271 15.3522 8.67271 14.9122 8.95271 14.6622C6.73271 14.4122 4.40271 13.5522 4.40271 9.74219C4.40271 8.63219 4.78271 7.74219 5.43271 7.03219C5.33271 6.78219 4.98271 5.74219 5.53271 4.39219C5.53271 4.39219 6.37271 4.12219 8.28271 5.41219C9.07271 5.19219 9.93271 5.08219 10.7827 5.08219C11.6327 5.08219 12.4927 5.19219 13.2827 5.41219C15.1927 4.12219 16.0327 4.39219 16.0327 4.39219C16.5827 5.74219 16.2327 6.78219 16.1327 7.03219C16.7827 7.74219 17.1627 8.63219 17.1627 9.74219C17.1627 13.5622 14.8227 14.4022 12.5927 14.6522C12.9527 14.9622 13.2827 15.5722 13.2827 16.5022V19.2422C13.2827 19.5122 13.4427 19.8322 13.9527 19.7422C17.9227 18.4022 20.7827 14.6622 20.7827 10.2422C20.7827 8.92897 20.5241 7.62861 20.0215 6.41535C19.519 5.2021 18.7824 4.09971 17.8538 3.17112C16.9252 2.24253 15.8228 1.50594 14.6095 1.00339C13.3963 0.500845 12.0959 0.242188 10.7827 0.242188Z" fill="white"/>
</svg>
