<svg width="56" height="55" viewBox="0 0 56 55" fill="none" xmlns="http://www.w3.org/2000/svg">
<path d="M28 0C24.323 0 20.682 0.728968 17.2849 2.14528C13.8877 3.5616 10.8011 5.63752 8.20101 8.25453C2.94999 13.5398 0 20.7082 0 28.1827C0 40.6395 8.036 51.208 19.152 54.9563C20.552 55.1818 21 54.3081 21 53.5472V48.7843C13.244 50.4753 11.592 45.0078 11.592 45.0078C10.304 41.7386 8.484 40.865 8.484 40.865C5.936 39.1176 8.68 39.174 8.68 39.174C11.48 39.3713 12.964 42.0768 12.964 42.0768C15.4 46.3606 19.516 45.0924 21.112 44.416C21.364 42.5841 22.092 41.3441 22.876 40.6395C16.66 39.9349 10.136 37.5112 10.136 26.7736C10.136 23.6453 11.2 21.1371 13.02 19.1361C12.74 18.4315 11.76 15.5005 13.3 11.6958C13.3 11.6958 15.652 10.9349 21 14.5705C23.212 13.9505 25.62 13.6404 28 13.6404C30.38 13.6404 32.788 13.9505 35 14.5705C40.348 10.9349 42.7 11.6958 42.7 11.6958C44.24 15.5005 43.26 18.4315 42.98 19.1361C44.8 21.1371 45.864 23.6453 45.864 26.7736C45.864 37.5394 39.312 39.9068 33.068 40.6113C34.076 41.485 35 43.2041 35 45.8251V53.5472C35 54.3081 35.448 55.21 36.876 54.9563C47.992 51.1799 56 40.6395 56 28.1827C56 24.4817 55.2758 20.817 53.8686 17.3977C52.4615 13.9784 50.399 10.8715 47.799 8.25453C45.1989 5.63752 42.1123 3.5616 38.7151 2.14528C35.318 0.728968 31.677 0 28 0Z" fill="white"/>
</svg>
