<svg width="21" height="20" viewBox="0 0 21 20" fill="none" xmlns="http://www.w3.org/2000/svg">
<path d="M5.8249 0H14.2249C17.4249 0 20.0249 2.6 20.0249 5.8V14.2C20.0249 15.7383 19.4138 17.2135 18.3261 18.3012C17.2384 19.3889 15.7632 20 14.2249 20H5.8249C2.6249 20 0.0249023 17.4 0.0249023 14.2V5.8C0.0249023 4.26174 0.635972 2.78649 1.72368 1.69878C2.81139 0.61107 4.28665 0 5.8249 0ZM5.6249 2C4.67012 2 3.75445 2.37928 3.07932 3.05442C2.40419 3.72955 2.0249 4.64522 2.0249 5.6V14.4C2.0249 16.39 3.6349 18 5.6249 18H14.4249C15.3797 18 16.2954 17.6207 16.9705 16.9456C17.6456 16.2705 18.0249 15.3548 18.0249 14.4V5.6C18.0249 3.61 16.4149 2 14.4249 2H5.6249ZM15.2749 3.5C15.6064 3.5 15.9244 3.6317 16.1588 3.86612C16.3932 4.10054 16.5249 4.41848 16.5249 4.75C16.5249 5.08152 16.3932 5.39946 16.1588 5.63388C15.9244 5.8683 15.6064 6 15.2749 6C14.9434 6 14.6254 5.8683 14.391 5.63388C14.1566 5.39946 14.0249 5.08152 14.0249 4.75C14.0249 4.41848 14.1566 4.10054 14.391 3.86612C14.6254 3.6317 14.9434 3.5 15.2749 3.5ZM10.0249 5C11.351 5 12.6228 5.52678 13.5604 6.46447C14.4981 7.40215 15.0249 8.67392 15.0249 10C15.0249 11.3261 14.4981 12.5979 13.5604 13.5355C12.6228 14.4732 11.351 15 10.0249 15C8.69882 15 7.42705 14.4732 6.48937 13.5355C5.55169 12.5979 5.0249 11.3261 5.0249 10C5.0249 8.67392 5.55169 7.40215 6.48937 6.46447C7.42705 5.52678 8.69882 5 10.0249 5ZM10.0249 7C9.22925 7 8.46619 7.31607 7.90358 7.87868C7.34097 8.44129 7.0249 9.20435 7.0249 10C7.0249 10.7956 7.34097 11.5587 7.90358 12.1213C8.46619 12.6839 9.22925 13 10.0249 13C10.8206 13 11.5836 12.6839 12.1462 12.1213C12.7088 11.5587 13.0249 10.7956 13.0249 10C13.0249 9.20435 12.7088 8.44129 12.1462 7.87868C11.5836 7.31607 10.8206 7 10.0249 7Z" fill="white"/>
</svg>
