<svg id="Capa_1" data-name="Capa 1" xmlns="http://www.w3.org/2000/svg" viewBox="0 0 1080 1080"><defs><style>.cls-1{fill:#fff;}</style></defs><path class="cls-1" d="M285.23,624q-17.64,0-30-7.16t-20.5-21.5L257,578.84q4.86,8.82,11,12.89a23.46,23.46,0,0,0,13.23,4.08q10.8,0,16.31-6.61t5.51-23.59v-108h32.63V568.25a72.24,72.24,0,0,1-5.29,28.11A44.35,44.35,0,0,1,314,616.54Q302.87,624,285.23,624Z"/><path class="cls-1" d="M562,623.86a61.25,61.25,0,0,1-26.55-6.18,69.19,69.19,0,0,1-22.89-17.63l15.57-22.49a58.23,58.23,0,0,0,16.39,13.12,38.08,38.08,0,0,0,18,5q10.62,0,16.12-5.07t5.49-13.67q0-6.18-2.65-9.81a25.61,25.61,0,0,0-7.24-6.51,104.1,104.1,0,0,0-10.62-5.73l-17.94-9.48a58.12,58.12,0,0,1-13.1-8.93,44.57,44.57,0,0,1-10.44-14.22q-4.11-8.6-4.12-20.5a47.62,47.62,0,0,1,6.05-24,45.59,45.59,0,0,1,16.66-16.86,46.55,46.55,0,0,1,24.17-6.28,52,52,0,0,1,23.26,5.51,57.67,57.67,0,0,1,19.41,15.65L593.85,496a53.34,53.34,0,0,0-13.37-9.92,34,34,0,0,0-15.57-3.52q-8.79,0-14,4.51t-5.22,12.68a14.87,14.87,0,0,0,2.93,9.48,26.27,26.27,0,0,0,7.69,6.51q4.76,2.76,10.44,5.62l17.76,8.6a54.12,54.12,0,0,1,14.37,9.92,41.23,41.23,0,0,1,9.53,14.33q3.38,8.38,3.38,20.28a51.45,51.45,0,0,1-5.95,24.47,46.35,46.35,0,0,1-17,18.08Q577.72,623.86,562,623.86Z"/><polygon class="cls-1" points="425.66 457.45 354.02 620.95 497.29 620.95 425.66 457.45"/><path class="cls-1" d="M711.7,456.15a84.66,84.66,0,1,0,84.66,84.65A84.66,84.66,0,0,0,711.7,456.15Zm0,136.39a51.74,51.74,0,1,1,51.74-51.74A51.73,51.73,0,0,1,711.7,592.54Z"/></svg>