<svg width="54" height="55" viewBox="0 0 54 55" fill="none" xmlns="http://www.w3.org/2000/svg">
<g clip-path="url(#clip0_72_69)">
<path d="M0 1H54V55H0V1Z" fill="#F7DF1E"/>
<path d="M14.1987 45.8011L18.331 43.3003C19.1283 44.7138 19.8535 45.9098 21.5931 45.9098C23.2606 45.9098 24.3121 45.2576 24.3121 42.7204V25.4661H29.3866V42.7921C29.3866 48.0481 26.3057 50.4405 21.8106 50.4405C17.7511 50.4405 15.3947 48.3381 14.1985 45.8007M32.1429 45.2574L36.2748 42.8651C37.3626 44.6414 38.7763 45.9463 41.2772 45.9463C43.38 45.9463 44.7207 44.895 44.7207 43.445C44.7207 41.7052 43.3433 41.0888 41.0234 40.0742L39.755 39.53C36.0938 37.9718 33.6653 36.0143 33.6653 31.882C33.6653 28.0759 36.565 25.1759 41.0962 25.1759C44.3223 25.1759 46.6421 26.2998 48.3094 29.2358L44.3581 31.7734C43.488 30.2148 42.546 29.5986 41.096 29.5986C39.6097 29.5986 38.6672 30.5411 38.6672 31.7734C38.6672 33.2957 39.6097 33.9123 41.7845 34.8548L43.053 35.3983C47.3667 37.2472 49.7952 39.1319 49.7952 43.3726C49.7952 47.9403 46.2068 50.4411 41.3858 50.4411C36.6737 50.4411 33.6288 48.1938 32.1427 45.2576" fill="black"/>
</g>
<defs>
<clipPath id="clip0_72_69">
<rect width="54" height="54" fill="white" transform="translate(0 0.674866)"/>
</clipPath>
</defs>
</svg>
