<svg width="19" height="18" viewBox="0 0 19 18" fill="none" xmlns="http://www.w3.org/2000/svg">
<path d="M16.0249 0C16.5553 0 17.064 0.210714 17.4391 0.585786C17.8142 0.960859 18.0249 1.46957 18.0249 2V16C18.0249 16.5304 17.8142 17.0391 17.4391 17.4142C17.064 17.7893 16.5553 18 16.0249 18H2.0249C1.49447 18 0.985761 17.7893 0.610689 17.4142C0.235616 17.0391 0.0249023 16.5304 0.0249023 16V2C0.0249023 1.46957 0.235616 0.960859 0.610689 0.585786C0.985761 0.210714 1.49447 0 2.0249 0H16.0249ZM15.5249 15.5V10.2C15.5249 9.33539 15.1814 8.5062 14.5701 7.89483C13.9587 7.28346 13.1295 6.94 12.2649 6.94C11.4149 6.94 10.4249 7.46 9.9449 8.24V7.13H7.1549V15.5H9.9449V10.57C9.9449 9.8 10.5649 9.17 11.3349 9.17C11.7062 9.17 12.0623 9.3175 12.3249 9.58005C12.5874 9.8426 12.7349 10.1987 12.7349 10.57V15.5H15.5249ZM3.9049 5.56C4.35047 5.56 4.77778 5.383 5.09284 5.06794C5.4079 4.75288 5.5849 4.32556 5.5849 3.88C5.5849 2.95 4.8349 2.19 3.9049 2.19C3.45669 2.19 3.02683 2.36805 2.70989 2.68499C2.39296 3.00193 2.2149 3.43178 2.2149 3.88C2.2149 4.81 2.9749 5.56 3.9049 5.56ZM5.2949 15.5V7.13H2.5249V15.5H5.2949Z" fill="white"/>
</svg>
