<svg width="60" height="61" viewBox="0 0 60 61" fill="none" xmlns="http://www.w3.org/2000/svg">
<path d="M30 60.9492C29.0684 60.9492 28.1988 60.7252 27.3914 60.3333L19.1304 55.9098C17.8882 55.2938 18.5093 55.0699 18.882 54.9579C20.5589 54.454 20.8695 54.342 22.6085 53.4459C22.7951 53.3339 23.0435 53.3899 23.2296 53.5019L29.5652 56.9176C29.8137 57.0296 30.1242 57.0296 30.3105 56.9176L55.0934 43.9831C55.3418 43.8711 55.466 43.6472 55.466 43.3672V17.5538C55.466 17.2738 55.3418 17.0499 55.0934 16.9379L30.3105 4.05917C30.0621 3.94718 29.7516 3.94718 29.5652 4.05917L4.78242 16.9381C4.53398 17.0501 4.40977 17.33 4.40977 17.554V43.3672C4.40977 43.5912 4.53398 43.8711 4.78242 43.9831L11.5528 47.5106C15.2175 49.1903 17.5153 47.2306 17.5153 45.2709V19.7935C17.5153 19.4575 17.8261 19.1216 18.2609 19.1216H21.4287C21.8013 19.1216 22.174 19.4015 22.174 19.7935V45.2707C22.174 49.6943 19.503 52.2699 14.8446 52.2699C13.4161 52.2699 12.2981 52.2699 9.13055 50.8701L2.60859 47.5106C0.99375 46.6705 0 45.1027 0 43.423V17.61C0 15.9302 0.99375 14.3625 2.60859 13.5224L27.3914 0.587897C28.9441 -0.195986 31.0559 -0.195986 32.6086 0.587897L57.3914 13.5224C59.0062 14.3623 60 15.93 60 17.61V43.4232C60 45.1029 59.0062 46.6707 57.3914 47.5106L32.6086 60.4455C31.8012 60.7814 30.8695 60.9494 30 60.9494V60.9492ZM37.6397 43.199C26.7701 43.199 24.5341 38.7197 24.5341 34.912C24.5341 34.5761 24.8447 34.2401 25.2795 34.2401H28.5091C28.8818 34.2401 29.1926 34.4641 29.1926 34.8001C29.6895 37.7676 31.118 39.2236 37.7018 39.2236C42.9192 39.2236 45.1554 38.1598 45.1554 35.6401C45.1554 34.1841 44.5343 33.1203 36.3975 32.3922C29.6273 31.7763 25.4037 30.4325 25.4037 25.5612C25.4037 21.0255 29.6271 18.3379 36.708 18.3379C44.6583 18.3379 48.5714 20.8015 49.0683 26.1769C49.0683 26.3449 49.0062 26.5129 48.882 26.6808C48.7577 26.7928 48.5714 26.9048 48.3851 26.9048H45.1554C44.8446 26.9048 44.5343 26.6808 44.472 26.4009C43.7266 23.3213 41.8013 22.3135 36.708 22.3135C30.994 22.3135 30.3105 24.1052 30.3105 25.449C30.3105 27.073 31.118 27.5767 38.8198 28.4726C46.4597 29.3684 50.062 30.6565 50.062 35.472C49.9999 40.3994 45.528 43.199 37.6397 43.199Z" fill="#539E43"/>
</svg>
