<svg width="62" height="61" viewBox="0 0 62 61" fill="none" xmlns="http://www.w3.org/2000/svg">
<path d="M30.4385 -3.05176e-05C14.872 -3.05176e-05 15.8439 6.69626 15.8439 6.69626L15.8612 13.6338H30.7161V15.7167H9.96106C9.96106 15.7167 0 14.596 0 30.1763C0 45.757 8.69426 45.2044 8.69426 45.2044H13.883V37.9743C13.883 37.9743 13.6032 29.35 22.4384 29.35H37.1718C37.1718 29.35 45.4495 29.4827 45.4495 21.4143V8.07362C45.4495 8.07362 46.7067 -3.05176e-05 30.4385 -3.05176e-05ZM22.2476 4.66534C22.5986 4.66503 22.9462 4.73338 23.2706 4.86649C23.595 4.9996 23.8897 5.19485 24.1379 5.44107C24.3861 5.68729 24.583 5.97964 24.7172 6.30141C24.8513 6.62317 24.9203 6.96802 24.9199 7.31623C24.9203 7.66443 24.8513 8.00929 24.7172 8.33105C24.583 8.65281 24.3861 8.94517 24.1379 9.19139C23.8897 9.43761 23.595 9.63286 23.2706 9.76597C22.9462 9.89907 22.5986 9.96743 22.2476 9.96711C21.8965 9.96743 21.5489 9.89907 21.2245 9.76597C20.9001 9.63286 20.6054 9.43761 20.3572 9.19139C20.109 8.94517 19.9121 8.65281 19.7779 8.33105C19.6438 8.00929 19.5748 7.66443 19.5752 7.31623C19.5748 6.96802 19.6438 6.62317 19.7779 6.30141C19.9121 5.97964 20.109 5.68729 20.3572 5.44107C20.6054 5.19485 20.9001 4.9996 21.2245 4.86649C21.5489 4.73338 21.8965 4.66503 22.2476 4.66534Z" fill="url(#paint0_linear_72_88)"/>
<path d="M30.8807 60.5093C46.4472 60.5093 45.4753 53.813 45.4753 53.813L45.458 46.8757H30.6029V44.7928H51.3579C51.3579 44.7928 61.319 45.9134 61.319 30.3327C61.319 14.7523 52.6247 15.3049 52.6247 15.3049H47.436V22.5347C47.436 22.5347 47.7157 31.159 38.8805 31.159H24.1471C24.1471 31.159 15.8694 31.0263 15.8694 39.095V52.4358C15.8694 52.4358 14.6125 60.5093 30.8804 60.5093H30.8807ZM39.0717 55.8444C38.7206 55.8447 38.373 55.7763 38.0486 55.6432C37.7242 55.5101 37.4295 55.3149 37.1813 55.0686C36.9331 54.8224 36.7362 54.5301 36.602 54.2083C36.4679 53.8865 36.399 53.5417 36.3993 53.1935C36.3989 52.8453 36.4678 52.5004 36.602 52.1786C36.7362 51.8568 36.933 51.5644 37.1812 51.3182C37.4294 51.0719 37.7242 50.8767 38.0485 50.7435C38.3729 50.6104 38.7206 50.542 39.0717 50.5424C39.4227 50.542 39.7703 50.6104 40.0947 50.7435C40.4191 50.8766 40.7138 51.0719 40.962 51.3181C41.2102 51.5643 41.4071 51.8567 41.5413 52.1784C41.6754 52.5002 41.7444 52.845 41.744 53.1932C41.7444 53.5415 41.6754 53.8863 41.5413 54.2081C41.4071 54.5298 41.2102 54.8222 40.962 55.0684C40.7138 55.3146 40.4191 55.5099 40.0947 55.643C39.7703 55.7761 39.4227 55.8444 39.0717 55.8441V55.8444Z" fill="url(#paint1_linear_72_88)"/>
<defs>
<linearGradient id="paint0_linear_72_88" x1="5.89272" y1="5.44242" x2="36.0375" y2="35.5285" gradientUnits="userSpaceOnUse">
<stop stop-color="#387EB8"/>
<stop offset="1" stop-color="#366994"/>
</linearGradient>
<linearGradient id="paint1_linear_72_88" x1="24.5448" y1="24.6055" x2="56.9289" y2="55.4675" gradientUnits="userSpaceOnUse">
<stop stop-color="#FFE052"/>
<stop offset="1" stop-color="#FFC331"/>
</linearGradient>
</defs>
</svg>
