<svg width="73" height="62" viewBox="0 0 73 62" fill="none" xmlns="http://www.w3.org/2000/svg">
<path d="M60.0205 20.06C59.2437 19.8061 58.4602 19.5708 57.6709 19.3544C57.8035 18.8381 57.9255 18.328 58.0339 17.827C59.8127 9.59876 58.6498 2.96993 54.6779 0.787407C50.8696 -1.3049 44.6415 0.876806 38.3515 6.09318C37.7316 6.6082 37.1255 7.13806 36.5336 7.68225C36.1375 7.32038 35.7343 6.96554 35.3243 6.61789C28.7321 1.04039 22.1244 -1.31034 18.1568 0.878437C14.3519 2.97727 13.2253 9.20883 14.8267 17.0069C14.986 17.7792 15.1659 18.5476 15.3662 19.3112C14.4309 19.5644 13.5284 19.834 12.6646 20.1209C4.93577 22.6887 0 26.7128 0 30.8868C0 35.1978 5.29877 39.5218 13.3487 42.1437C14.0014 42.3554 14.6594 42.5516 15.3223 42.732C15.107 43.5544 14.9159 44.3825 14.7491 45.2151C13.2224 52.8778 14.4146 58.9621 18.2092 61.0476C22.1284 63.2013 28.7064 60.9878 35.1113 55.6524C35.6307 55.2187 36.1386 54.7726 36.6346 54.3147C37.2755 54.904 37.9335 55.4761 38.6079 56.0304C44.8123 61.1177 50.9397 63.172 54.7306 61.0808C58.6461 58.9208 59.9187 52.3846 58.2665 44.4325C58.1364 43.8095 57.9904 43.1896 57.8288 42.5733C58.2908 42.4429 58.7442 42.3087 59.1862 42.169C67.5549 39.527 73 35.2554 73 30.8868C73 26.6976 67.9048 22.6464 60.0205 20.06ZM58.2055 39.3484C57.8063 39.4743 57.3968 39.5957 56.9794 39.7139C56.0554 36.9268 54.8087 33.9633 53.2829 30.9012C54.7389 27.9122 55.9377 24.9865 56.8356 22.2176C57.5825 22.4235 58.307 22.6407 59.0057 22.8697C65.761 25.0859 69.8815 28.3622 69.8815 30.8868C69.8815 33.5758 65.4314 37.0667 58.2055 39.3484ZM55.2074 45.0096C55.938 48.5258 56.042 51.705 55.5581 54.1905C55.1236 56.4239 54.2493 57.9127 53.168 58.5091C50.8676 59.7781 45.9478 58.1287 40.6419 53.7778C40.0147 53.2624 39.4026 52.7305 38.8063 52.1827C40.8635 50.0391 42.9192 47.5471 44.9255 44.7792C48.4546 44.4809 51.7887 43.9928 54.8122 43.3268C54.9578 43.8847 55.0896 44.4458 55.2074 45.0096ZM24.8873 58.2898C22.6397 59.0461 20.8495 59.0678 19.7673 58.4733C17.4647 57.2078 16.5074 52.3224 17.8131 45.7694C17.9684 44.995 18.1461 44.2249 18.3461 43.46C21.3362 44.0904 24.6461 44.5436 28.1834 44.817C30.2035 47.5253 32.3185 50.0146 34.45 52.1944C33.997 52.6121 33.5333 53.0191 33.0593 53.415C30.2268 55.7742 27.3887 57.448 24.8873 58.2898ZM14.3576 39.3319C10.798 38.1724 7.85834 36.6657 5.84342 35.0214C4.03268 33.544 3.11875 32.077 3.11875 30.8868C3.11875 28.3538 7.08157 25.1229 13.6912 22.9271C14.4934 22.6608 15.3329 22.4094 16.204 22.1736C17.1176 25.005 18.3159 27.9655 19.7619 30.9591C18.2971 33.997 17.0817 37.0048 16.1592 39.8696C15.5542 39.7045 14.9534 39.5252 14.3576 39.3319ZM17.8873 16.436C16.5154 9.755 17.4265 4.71525 19.7194 3.45035C22.1615 2.10312 27.5618 4.02397 33.2538 8.84009C33.6249 9.15486 33.9901 9.476 34.3491 9.80337C32.2281 11.9737 30.1325 14.4445 28.1304 17.1368C24.6971 17.44 21.4107 17.927 18.3892 18.5794C18.203 17.8692 18.0357 17.1545 17.8873 16.4363V16.436ZM49.3762 23.8455C48.6626 22.6708 47.9224 21.5109 47.1563 20.3666C49.4854 20.6473 51.7171 21.0198 53.8127 21.4752C53.1836 23.3969 52.3995 25.4058 51.4764 27.4655C50.8017 26.2456 50.1015 25.0387 49.3762 23.8455ZM36.5351 11.9272C37.9734 13.4122 39.414 15.07 40.831 16.8689C37.9566 16.7395 35.0774 16.739 32.203 16.8672C33.6213 15.085 35.0742 13.4293 36.5351 11.9272ZM23.6115 23.8659C22.8953 25.0495 22.2082 26.2489 21.5507 27.463C20.6427 25.4107 19.8657 23.3925 19.2312 21.4437C21.314 20.9997 23.5351 20.6367 25.8494 20.3611C25.0748 21.5124 24.3286 22.6809 23.6115 23.8656V23.8659ZM25.9159 41.6239C23.5248 41.3696 21.2704 41.0253 19.1882 40.5932C19.8326 38.6096 20.6268 36.5485 21.5544 34.4522C22.2145 35.6672 22.9045 36.8673 23.6238 38.0515C24.3635 39.2688 25.1294 40.4612 25.9159 41.6239ZM36.6212 50.0556C35.1429 48.5361 33.6687 46.855 32.2289 45.0469C33.6268 45.099 35.0517 45.1257 36.5 45.1257C37.9879 45.1257 39.4588 45.0939 40.9065 45.0325C39.485 46.8732 38.0498 48.5568 36.6212 50.0556ZM51.5058 34.3451C52.4816 36.4646 53.304 38.5148 53.957 40.4644C51.8405 40.9247 49.5553 41.2954 47.1474 41.5706C47.919 40.4051 48.6662 39.225 49.3885 38.0311C50.1229 36.8176 50.8288 35.5886 51.5058 34.3451ZM46.6872 36.5464C45.5814 38.3768 44.4135 40.1726 43.1852 41.9307C40.9603 42.0808 38.7305 42.1554 36.5 42.1543C34.2282 42.1543 32.0185 42.0869 29.8906 41.9554C28.6303 40.2014 27.4401 38.4025 26.3225 36.5627H26.3228C25.2104 34.7326 24.1714 32.8629 23.208 30.9577C24.169 29.0521 25.2048 27.1815 26.3134 25.3501L26.3131 25.3503C27.4212 23.5184 28.6019 21.7272 29.8527 19.9807C32.0236 19.8242 34.2498 19.7427 36.4997 19.7427H36.5C38.7601 19.7427 40.9892 19.825 43.1595 19.9826C44.3977 21.7265 45.5709 23.5115 46.6769 25.3343C47.7892 27.1617 48.8387 29.0231 49.8239 30.9156C48.8488 32.8274 47.8026 34.7055 46.6872 36.5464ZM53.1203 3.36177C55.5647 4.70519 56.5154 10.1227 54.9795 17.227C54.8815 17.6802 54.7714 18.1419 54.6516 18.6101C51.6227 17.9438 48.334 17.4485 44.8907 17.1406C42.8849 14.4187 40.8064 11.944 38.7199 9.80174C39.2668 9.29945 39.8266 8.81019 40.3989 8.3344C45.7884 3.86528 50.8254 2.10067 53.1203 3.36177ZM36.5 24.6751C40.1001 24.6751 43.0187 27.4562 43.0187 30.8868C43.0187 34.3174 40.1001 37.0985 36.5 37.0985C32.8999 37.0985 29.9813 34.3174 29.9813 30.8868C29.9813 27.4562 32.8999 24.6751 36.5 24.6751Z" fill="#00D8FF"/>
</svg>
