<svg width="24" height="24" viewBox="0 0 24 24" fill="none" xmlns="http://www.w3.org/2000/svg">
<path fill-rule="evenodd" clip-rule="evenodd" d="M10.8964 2C9.47781 2.00012 8.07978 2.33949 6.81899 2.9898C5.55819 3.64011 4.4712 4.5825 3.64869 5.73835C2.82617 6.8942 2.292 8.22998 2.09073 9.63426C1.88946 11.0385 2.02693 12.4706 2.49167 13.8109C2.95641 15.1513 3.73494 16.361 4.76231 17.3393C5.78969 18.3176 7.03611 19.036 8.3976 19.4346C9.75908 19.8331 11.1961 19.9004 12.5889 19.6306C13.9816 19.3609 15.2897 18.7619 16.4039 17.8839L20.2262 21.7062C20.4236 21.8968 20.688 22.0023 20.9624 22C21.2369 21.9976 21.4994 21.8875 21.6934 21.6934C21.8875 21.4994 21.9976 21.2369 21.9999 20.9625C22.0023 20.688 21.8968 20.4236 21.7062 20.2262L17.8838 16.4039C18.9179 15.0921 19.5618 13.5156 19.7417 11.8549C19.9217 10.1942 19.6305 8.51642 18.9014 7.01352C18.1723 5.51061 17.0349 4.24333 15.6192 3.35669C14.2035 2.47005 12.5668 1.99989 10.8964 2ZM4.09326 10.8965C4.09326 9.09215 4.81002 7.36173 6.08587 6.08589C7.36171 4.81005 9.09213 4.09329 10.8964 4.09329C12.7008 4.09329 14.4312 4.81005 15.707 6.08589C16.9829 7.36173 17.6996 9.09215 17.6996 10.8965C17.6996 12.7008 16.9829 14.4312 15.707 15.707C14.4312 16.9829 12.7008 17.6996 10.8964 17.6996C9.09213 17.6996 7.36171 16.9829 6.08587 15.707C4.81002 14.4312 4.09326 12.7008 4.09326 10.8965Z" fill="white"/>
</svg>
