<svg width="59" height="59" viewBox="0 0 59 59" fill="none" xmlns="http://www.w3.org/2000/svg">
<path d="M13.4373 42.9447L28.1817 28.2002L30.7888 30.8073L16.0443 45.5517L13.4373 42.9447Z" fill="#747474"/>
<path d="M31.3438 55.3125C31.1103 55.3131 30.8788 55.2693 30.6617 55.1834C30.3596 55.063 30.0948 54.8649 29.894 54.609C29.6932 54.3532 29.5637 54.0489 29.5185 53.7269L27.6748 40.8206L31.3623 40.3044L32.7451 50.0209L38.7188 45.2087V31.3437C38.7174 31.1011 38.764 30.8606 38.8557 30.6359C38.9475 30.4113 39.0827 30.207 39.2535 30.0347L46.7576 22.5306C48.3038 20.9949 49.5302 19.1677 50.3657 17.155C51.2012 15.1422 51.6292 12.9837 51.6251 10.8044V7.37499H48.1957C46.0164 7.37085 43.8579 7.79891 41.8451 8.63441C39.8323 9.46991 38.0052 10.6963 36.4695 12.2425L28.9654 19.7466C28.7931 19.9174 28.5888 20.0526 28.3642 20.1444C28.1395 20.2361 27.899 20.2826 27.6563 20.2812H13.7913L8.97916 26.2919L18.6957 27.6747L18.1795 31.3622L5.27322 29.5184C4.9512 29.4733 4.64685 29.3437 4.39104 29.143C4.13523 28.9422 3.93707 28.6774 3.81666 28.3753C3.69475 28.0711 3.65612 27.74 3.70473 27.4159C3.75334 27.0918 3.88744 26.7866 4.09322 26.5316L11.4682 17.3128C11.6381 17.0921 11.8557 16.9128 12.1048 16.7882C12.3538 16.6637 12.6279 16.5972 12.9063 16.5937H26.9004L33.8513 9.62437C35.7304 7.73472 37.966 6.23691 40.4283 5.21779C42.8907 4.19867 45.5308 3.67851 48.1957 3.68749H51.6251C52.6031 3.68749 53.541 4.076 54.2326 4.76754C54.9241 5.45908 55.3126 6.39701 55.3126 7.37499V10.8044C55.3216 13.4693 54.8014 16.1094 53.7823 18.5718C52.7632 21.0341 51.2654 23.2697 49.3757 25.1487L42.4063 32.0997V46.0937C42.4051 46.3707 42.3414 46.6438 42.2201 46.8927C42.0988 47.1417 41.923 47.3602 41.7057 47.5319L32.487 54.9069C32.1626 55.1671 31.7597 55.3101 31.3438 55.3125Z" fill="#747474"/>
</svg>
