<svg width="73" height="68" viewBox="0 0 73 68" fill="none" xmlns="http://www.w3.org/2000/svg">
<path d="M73 26.7313C72.9962 25.5318 72.4809 24.382 71.5657 23.5313L47.5334 1.32525C46.6127 0.47961 45.3684 0.00343519 44.0702 0C42.7736 0.0103069 41.5319 0.48545 40.607 1.32525L31.7217 9.53534L11.2575 16.6464C10.4546 16.9276 9.74506 17.3975 9.19902 18.0098C8.65298 18.6221 8.28936 19.3554 8.14413 20.1373L0.0284116 65.1959C-0.0266972 65.4996 -0.00138873 65.8111 0.102174 66.1038C0.205736 66.3965 0.384471 66.6617 0.623098 66.8767C0.809966 67.0636 1.0374 67.2121 1.29057 67.3123C1.54373 67.4126 1.81692 67.4624 2.09232 67.4585H2.44214L51.2064 59.9595C52.0579 59.838 52.8581 59.5067 53.523 59.0005C54.1878 58.4942 54.6927 57.8317 54.9845 57.0827L62.6804 38.1737L71.5657 29.9636C72.0231 29.5384 72.3852 29.0341 72.6313 28.4794C72.8774 27.9248 73.0027 27.3307 73 26.7313ZM51.0665 55.6928C51.0242 55.7947 50.9533 55.8844 50.8611 55.9526C50.7689 56.0207 50.6587 56.065 50.5418 56.0807L8.2141 62.61L26.7193 45.511C28.1424 46.3424 29.7933 46.7798 31.4768 46.7716C33.2757 46.7716 35.0342 46.2788 36.5299 45.3553C38.0256 44.4319 39.1913 43.1193 39.8797 41.5837C40.5681 40.0481 40.7482 38.3583 40.3973 36.7281C40.0463 35.0979 39.1801 33.6004 37.9081 32.4251C36.6361 31.2498 35.0155 30.4493 33.2512 30.1251C31.4869 29.8008 29.6582 29.9672 27.9963 30.6033C26.3343 31.2394 24.9138 32.3166 23.9145 33.6986C22.9151 35.0806 22.3816 36.7055 22.3816 38.3676C22.3728 39.9232 22.8462 41.4487 23.7459 42.7636L5.24066 59.8625L12.3069 20.7515C12.324 20.6435 12.3719 20.5416 12.4456 20.4564C12.5194 20.3712 12.6164 20.3057 12.7267 20.2666L32.3514 13.4788L58.4126 37.5595L51.0665 55.6928ZM26.5794 38.3676C26.5794 37.4726 26.8666 36.5977 27.4048 35.8535C27.9429 35.1094 28.7078 34.5293 29.6027 34.1868C30.4976 33.8443 31.4823 33.7547 32.4323 33.9293C33.3823 34.1039 34.2549 34.5349 34.9398 35.1678C35.6248 35.8007 36.0912 36.607 36.2802 37.4848C36.4691 38.3626 36.3721 39.2725 36.0015 40.0994C35.6308 40.9262 35.0031 41.633 34.1977 42.1302C33.3923 42.6275 32.4455 42.8929 31.4768 42.8929C30.178 42.8929 28.9323 42.4161 28.0138 41.5674C27.0954 40.7188 26.5794 39.5678 26.5794 38.3676ZM68.5923 27.1838L60.8614 34.3272L35.8495 11.2161L43.5805 4.07272C43.6427 4.01002 43.7184 3.95996 43.8027 3.92571C43.887 3.89146 43.9781 3.87378 44.0702 3.87378C44.1623 3.87378 44.2534 3.89146 44.3377 3.92571C44.422 3.95996 44.4977 4.01002 44.5599 4.07272L68.5923 26.2787C68.6601 26.3363 68.7143 26.4062 68.7514 26.4841C68.7884 26.562 68.8076 26.6462 68.8076 26.7313C68.8076 26.8164 68.7884 26.9005 68.7514 26.9784C68.7143 27.0563 68.6601 27.1263 68.5923 27.1838Z" fill="#747474"/>
</svg>
